<svg width="32" height="32" viewBox="0 0 32 32" fill="none" xmlns="http://www.w3.org/2000/svg">
<path d="M7.82076 0.0625615C7.97043 0.0613236 8.1201 0.0600857 8.2743 0.0588103C8.43643 0.0583451 8.59856 0.0578799 8.7656 0.0574007C9.02422 0.0556954 9.02422 0.0556954 9.28806 0.0539557C9.85802 0.0505489 10.428 0.0485255 10.9979 0.0467991C11.2907 0.0457414 11.2907 0.0457414 11.5893 0.0446624C12.6226 0.0410563 13.6558 0.0385809 14.6891 0.0369577C15.7535 0.0350455 16.8179 0.0290954 17.8823 0.0222227C18.7032 0.0176882 19.5241 0.0162498 20.345 0.0156295C20.7372 0.0147895 21.1294 0.0127853 21.5216 0.00956777C22.0722 0.00533235 22.6226 0.00551782 23.1731 0.00671575C23.3332 0.00449955 23.4933 0.00228335 23.6583 0C25.9215 0.0178301 27.9753 1.14555 29.6032 2.7331C31.7834 5.26301 31.9231 8.20223 31.962 11.4414C31.9648 11.6196 31.9676 11.7977 31.9705 11.9812C32.016 14.8977 32.0055 17.8132 31.962 20.7296C31.9589 21.006 31.9589 21.006 31.9557 21.2879C31.9 25.7438 31.9 25.7438 30.8391 27.5957C30.7665 27.7251 30.6938 27.8544 30.6189 27.9877C29.5944 29.6698 27.8441 31.1861 25.9607 31.6895C24.2397 32.0735 22.4798 31.9954 20.7281 31.9898C20.3448 31.9901 19.9615 31.9906 19.5781 31.9913C18.7778 31.992 17.9775 31.9909 17.1772 31.9885C16.1565 31.9856 15.1358 31.9873 14.1151 31.9904C13.3244 31.9923 12.5338 31.9916 11.7431 31.9903C11.367 31.99 10.9908 31.9904 10.6147 31.9916C7.27466 32 4.82265 31.8207 2.31001 29.3042C0.693392 27.5152 0.0118545 25.4152 0.0185816 22.9927C0.0177314 22.8325 0.0168812 22.6722 0.0160052 22.5071C0.0137051 21.9806 0.013852 21.4541 0.014236 20.9276C0.0135886 20.5588 0.0128674 20.1899 0.0120759 19.821C0.0108369 19.0487 0.0108812 18.2763 0.0117586 17.504C0.0127203 16.5194 0.00991052 15.5349 0.00604551 14.5503C0.0035815 13.7884 0.00345018 13.0266 0.00396727 12.2647C0.00388245 11.902 0.00302181 11.5393 0.00133694 11.1766C-0.00913389 8.60654 0.00768902 6.29497 1.39508 4.06713C1.49458 3.88872 1.59407 3.7103 1.69659 3.52649C3.08862 1.62378 5.4856 0.0759094 7.82076 0.0625615Z" fill="#26282C"/>
<path d="M11.6015 8.9428C12.9962 9.90493 13.7947 11.294 14.1841 12.9006C14.6985 15.9674 14.6985 15.9674 14.1006 16.7961C13.7697 17.0558 13.7697 17.0558 13.4078 17.2984C12.9342 17.6461 12.6216 18.0355 12.2677 18.498C12.1547 18.645 12.0417 18.7921 11.9252 18.9436C11.6687 19.3251 11.6687 19.3251 11.7103 19.6798C12.396 21.1137 13.8593 22.8278 15.3443 23.5507C15.9272 23.6433 16.3378 23.6423 16.8599 23.3553C18.115 22.4436 19.4308 21.2094 20.1508 19.8393C20.1105 19.0725 19.6954 18.6108 19.1978 18.0542C19.1264 17.9709 19.0551 17.8876 18.9816 17.8018C18.6331 17.4031 18.3068 17.082 17.8647 16.7816C17.4989 16.4507 17.4989 16.4507 17.3947 15.9489C17.4341 13.8484 17.6856 11.4851 19.1564 9.83472C20.3866 8.76538 21.7055 7.93835 23.3957 8.00361C25.0571 8.2358 26.4447 9.01821 27.4849 10.2886C28.7518 12.0583 28.987 13.958 28.985 16.0731C28.9857 16.2458 28.9864 16.4186 28.9872 16.5966C28.9881 16.959 28.9882 17.3215 28.9875 17.6839C28.987 18.2349 28.9909 18.7857 28.9951 19.3366C28.9954 19.691 28.9955 20.0453 28.9954 20.3997C28.9969 20.5623 28.9984 20.7248 29 20.8924C28.9918 22.1284 28.8625 23.3301 28.0754 24.3373C27.0618 25.0829 25.9737 25.4489 24.7502 25.7392C24.6117 25.7732 24.4732 25.8071 24.3305 25.8421C24.0558 25.9094 23.7809 25.9761 23.5059 26.0422C23.1927 26.1183 22.8807 26.1987 22.569 26.28C20.3624 26.8525 18.195 27.0056 15.9244 26.9998C15.7936 26.9998 15.6628 26.9997 15.528 26.9996C13.3597 26.9929 11.3194 26.8152 9.21183 26.2939C8.9754 26.2381 8.9754 26.2381 8.73419 26.1813C8.24313 26.0647 7.75354 25.9437 7.26436 25.8199C7.11825 25.783 6.97213 25.7462 6.82159 25.7082C4.10809 24.9759 4.10809 24.9759 3.48336 23.9339C3.17898 23.2382 3.05745 22.7429 3.05003 21.9922C3.0479 21.8047 3.04577 21.6171 3.04358 21.4239C3.04236 21.2207 3.04113 21.0175 3.03987 20.8081C3.03853 20.5985 3.03719 20.3889 3.03582 20.1729C3.03333 19.7281 3.0317 19.2833 3.03044 18.8385C3.02862 18.2738 3.02293 17.7091 3.01633 17.1444C3.0109 16.6007 3.0102 16.0571 3.00879 15.5134C3.00589 15.3131 3.00299 15.1128 3 14.9065C3.00514 12.8705 3.5478 11.0522 5.01194 9.55296C6.98463 7.79863 9.32596 7.5935 11.6015 8.9428Z" fill="#F0F0F1"/>
<path d="M1.32468 25C1.48539 25.0547 1.6461 25.1093 1.81169 25.1656C1.81169 25.275 1.81169 25.3843 1.81169 25.4969C1.96571 25.5174 2.11972 25.5379 2.27841 25.559C2.78571 25.6626 2.78571 25.6626 3.11039 25.9938C3.48746 26.0602 3.86646 26.1164 4.24675 26.1595C4.30032 25.9955 4.3539 25.8315 4.40909 25.6626C5.21762 25.8421 6.02295 26.0301 6.8264 26.232C7.07971 26.2954 7.07971 26.2954 7.33814 26.3601C7.68283 26.4466 8.02738 26.5337 8.37178 26.6215C10.4412 27.137 12.419 27.3774 14.5435 27.3713C14.9178 27.3707 15.2919 27.3746 15.6662 27.3788C17.3733 27.386 18.9733 27.177 20.6429 26.8221C21.1619 26.712 21.6242 26.6369 22.1546 26.6461C22.3522 26.6495 22.5497 26.6529 22.7532 26.6564C22.6461 26.9297 22.539 27.203 22.4286 27.4846C22.75 27.5666 22.75 27.5666 23.0779 27.6503C22.3439 27.9337 21.6889 28.0399 20.9067 28.0851C20.6034 28.1036 20.6034 28.1036 20.2941 28.1226C20.1413 28.1307 19.9886 28.1388 19.8312 28.1472C19.881 28.2623 19.9308 28.3774 19.9821 28.4959C20.167 29.0063 20.2575 29.4837 20.3385 30.021C20.3657 30.198 20.3929 30.375 20.4209 30.5574C20.4406 30.6913 20.4603 30.8252 20.4805 30.9631C20.6613 30.9836 20.8421 31.0041 21.0284 31.0252C21.6169 31.1287 21.6169 31.1287 21.9416 31.46C21.9951 31.296 22.0487 31.132 22.1039 30.9631C22.2309 30.9531 22.3579 30.943 22.4888 30.9327C22.6531 30.9188 22.8174 30.9049 22.9866 30.8906C23.1505 30.8772 23.3143 30.8637 23.4831 30.8499C23.8793 30.8418 23.8793 30.8418 24.0519 30.6318C24.0637 30.3249 24.0656 30.0176 24.0621 29.7104C24.0606 29.5428 24.0592 29.3752 24.0577 29.2025C24.0558 29.0729 24.0539 28.9433 24.0519 28.8098C24.2127 28.8644 24.3734 28.9191 24.539 28.9754C24.5925 29.2487 24.6461 29.522 24.7013 29.8036C24.8084 29.8036 24.9156 29.8036 25.026 29.8036C25.026 29.9129 25.026 30.0222 25.026 30.1349C25.2938 30.1349 25.5617 30.1349 25.8377 30.1349C25.8912 30.4082 25.9448 30.6815 26 30.9631C25.8929 30.9631 25.7857 30.9631 25.6753 30.9631C25.6218 31.0724 25.5682 31.1817 25.513 31.2944C25.2987 31.2944 25.0844 31.2944 24.8636 31.2944C24.7866 31.373 24.7096 31.4515 24.6303 31.5325C24.0652 32.109 23.1493 31.9775 22.3984 31.9812C22.1672 31.9811 22.1672 31.9811 21.9313 31.981C21.6852 31.9818 21.6852 31.9818 21.4342 31.9827C20.8922 31.9843 20.3503 31.9846 19.8083 31.9848C19.4308 31.9853 19.0533 31.9859 18.6758 31.9864C17.8843 31.9874 17.0928 31.9877 16.3014 31.9876C15.2892 31.9876 14.277 31.9899 13.2648 31.9927C12.4849 31.9946 11.705 31.9949 10.9251 31.9948C10.552 31.995 10.1789 31.9957 9.8059 31.997C9.28298 31.9987 8.7601 31.9982 8.23718 31.9972C8.00789 31.9986 8.00789 31.9986 7.77397 32C5.47007 31.9889 5.47007 31.9889 4.68304 31.2944C4.59263 31.1851 4.50223 31.0757 4.40909 30.9631C4.06281 30.7585 4.06281 30.7585 3.75974 30.6318C3.81331 30.5225 3.86688 30.4132 3.92208 30.3005C3.81494 30.2015 3.70779 30.1024 3.5974 30.0003C3.27273 29.638 3.27273 29.638 3.27273 29.141C3.16558 29.141 3.05844 29.141 2.94805 29.141C2.94805 29.0317 2.94805 28.9224 2.94805 28.8098C2.68019 28.8098 2.41234 28.8098 2.13636 28.8098C2.08279 28.5364 2.02922 28.2631 1.97403 27.9815C1.86688 27.9815 1.75974 27.9815 1.64935 27.9815C1.59578 27.5443 1.54221 27.107 1.48701 26.6564C1.55502 26.7516 1.62303 26.8469 1.69311 26.945C2.06243 27.4367 2.4702 27.8876 2.87893 28.3452C3.11039 28.6441 3.11039 28.6441 3.11039 28.9754C3.19409 29.0164 3.2778 29.0574 3.36404 29.0996C3.67535 29.2625 3.97823 29.4422 4.27719 29.6276C5.9328 30.5724 7.53302 30.5443 9.37624 30.5509C9.66897 30.5537 9.96169 30.5567 10.2544 30.5599C11.0206 30.5678 11.7868 30.5727 12.553 30.5771C13.3366 30.582 14.1201 30.5897 14.9036 30.5972C16.4379 30.6114 17.9722 30.6226 19.5065 30.6318C19.4713 30.518 19.4362 30.4042 19.4 30.2869C19.3548 30.1377 19.3096 29.9884 19.263 29.8347C19.2178 29.6867 19.1726 29.5387 19.126 29.3863C19.0195 28.9754 19.0195 28.9754 19.0195 28.4785C18.8597 28.5051 18.7 28.5317 18.5354 28.5592C17.87 28.6557 17.2082 28.6736 16.5369 28.6778C16.4103 28.6789 16.2837 28.6801 16.1533 28.6813C10.8018 28.7195 10.8018 28.7195 8.46753 28.1472C8.33172 28.1143 8.19591 28.0814 8.05598 28.0475C6.04747 27.5438 4.16144 26.8234 2.27524 25.9638C1.90791 25.7985 1.53648 25.6454 1.16234 25.4969C1.26948 25.8249 1.37662 26.1529 1.48701 26.4908C1.3263 26.4361 1.16558 26.3814 1 26.3251C1 25.9425 1 25.5599 1 25.1656C1.10714 25.111 1.21429 25.0563 1.32468 25Z" fill="#24252E"/>
<path d="M1 25C1.88983 25.1293 2.65338 25.5313 3.46681 25.9184C4.86963 26.5709 6.24467 27.0706 7.72566 27.4808C7.88583 27.5332 8.04599 27.5856 8.21101 27.6396C10.9769 28.5378 13.8051 28.4849 16.6637 28.4589C17.0345 28.4569 17.4053 28.4552 17.7761 28.4537C18.6738 28.4495 19.5714 28.4429 20.469 28.435C20.5581 28.7768 20.6464 29.1187 20.7345 29.4607C20.7838 29.6511 20.8331 29.8416 20.8838 30.0377C21 30.5342 21 30.5342 21 30.9159C19.1675 30.9336 17.335 30.9471 15.5024 30.9554C14.6513 30.9594 13.8002 30.9647 12.9491 30.9734C12.1262 30.9818 11.3034 30.9863 10.4806 30.9883C10.1681 30.9897 9.85571 30.9924 9.5433 30.9966C7.17261 31.0268 4.92054 30.8962 3.12389 29.0075C1 26.4986 1 26.4986 1 25Z" fill="#3F40AB"/>
<path d="M31 25C30.4795 27.0221 29.4444 28.5574 27.8421 29.7895C27.4303 30.0299 27.0637 30.1881 26.614 30.3421C26.614 30.2205 26.614 30.0989 26.614 29.9737C26.4982 29.9737 26.3825 29.9737 26.2632 29.9737C26.1763 29.5178 26.1763 29.5178 26.0877 29.0526C25.9719 29.0526 25.8561 29.0526 25.7368 29.0526C25.7409 29.1813 25.745 29.31 25.7492 29.4426C25.7539 29.6941 25.7539 29.6941 25.7588 29.9507C25.7628 30.1174 25.7669 30.2841 25.7711 30.4558C25.7368 30.8947 25.7368 30.8947 25.386 31.2632C24.9296 31.2991 24.9296 31.2991 24.3991 31.2862C24.2232 31.2829 24.0472 31.2795 23.866 31.2761C23.6631 31.2697 23.6631 31.2697 23.4561 31.2632C23.3982 31.5063 23.3404 31.7495 23.2807 32C23.1649 31.8784 23.0491 31.7568 22.9298 31.6316C22.5223 31.5578 22.1127 31.4953 21.7018 31.4474C21.3785 30.3563 21.1822 29.2573 21 28.1316C21.5324 27.9452 21.9341 27.9233 22.4912 27.9013C23.2713 27.8582 23.2713 27.8582 23.8289 27.3141C23.8796 27.1584 23.9303 27.0026 23.9825 26.8421C24.0404 26.7205 24.0982 26.5989 24.1579 26.4737C23.9263 26.4129 23.6947 26.3521 23.4561 26.2895C24.4404 26.0463 25.4246 25.8032 26.4386 25.5526C26.6571 26.0115 26.5749 26.1809 26.4386 26.6579C26.605 26.5743 26.7715 26.4907 26.943 26.4046C27.4739 26.162 27.9736 26.0342 28.5439 25.9326C29.3797 25.776 30.2279 25 31 25Z" fill="#262834"/>
<path d="M24.5518 13.2029C25.2379 13.552 25.6705 13.901 25.9382 14.6082C26.0593 15.6019 26.0573 16.5045 25.4163 17.3258C24.7153 17.8544 24.0822 18.0624 23.1981 17.984C22.5382 17.889 21.9651 17.7499 21.5426 17.219C21.0882 16.3477 20.8836 15.5842 21.0669 14.6082C21.7845 13.207 23.0224 12.6688 24.5518 13.2029Z" fill="#232428"/>
<path d="M9.54454 13.2027C10.2316 13.5502 10.6649 13.8977 10.9329 14.6017C11.0484 15.4255 11.046 16.1977 10.6716 16.9583C10.1233 17.6101 9.68971 17.8427 8.84216 17.9834C8.13251 18.0312 7.5428 17.9971 6.94875 17.593C6.25632 16.9484 6.02821 16.4168 6 15.4788C6.00983 14.6608 6.17365 14.2084 6.75138 13.5871C7.55066 12.9223 8.56888 12.864 9.54454 13.2027Z" fill="#24252A"/>
<path d="M15.7714 18.0984C16.6234 18.5991 17.4684 19.1962 18 20.0005C17.9434 20.1574 17.8869 20.3143 17.8286 20.476C15.6203 21.3293 14.187 21.0421 12 20.3175C12.6403 18.9942 14.152 17.6162 15.7714 18.0984Z" fill="#ECB638"/>
<path d="M15 20.1969C15.7755 20.3863 16.4192 20.2949 17.2 20.1871C17.4666 20.1572 17.7332 20.1278 18 20.0992C18.297 20.0653 18.297 20.0653 18.6 20.0308C18.732 20.2371 18.864 20.4435 19 20.6561C18.3029 21.2858 17.4174 21.4359 16.4 21.5939C15.3085 21.5645 14.4023 21.2848 13.4 20.9687C14.0592 21.64 14.7797 22.3485 15.8 22.6881C16.6897 22.6544 17.1276 22.3634 17.7625 21.8968C17.9205 21.7821 18.0786 21.6675 18.2414 21.5494C18.4189 21.4167 18.4189 21.4167 18.6 21.2813C18.6 21.7503 18.6 21.7503 18.325 22.014C18 22.2192 18 22.2192 17.6 22.2192C17.6 22.3739 17.6 22.5287 17.6 22.6881C17.468 22.6881 17.336 22.6881 17.2 22.6881C17.2 22.7913 17.2 22.8945 17.2 23.0008C17.068 23.0523 16.936 23.1039 16.8 23.1571C16.8 23.415 16.8 23.6729 16.8 23.9386C15.9895 24.0488 15.5976 24.0359 14.8898 23.6877C14.0247 23.1538 13.2223 22.6251 12.6 21.9066C12.666 21.7518 12.732 21.5971 12.8 21.4376C12.536 21.3345 12.272 21.2313 12 21.125C12.198 21.0218 12.396 20.9187 12.6 20.8124C12.468 20.8124 12.336 20.8124 12.2 20.8124C12.2 20.606 12.2 20.3997 12.2 20.1871C13.1605 19.9369 14.0545 19.9352 15 20.1969Z" fill="#231E19"/>
<path d="M30 25C29.5113 26.8706 28.5312 28.3663 27 29.4828C26.6163 29.6762 26.2313 29.8384 25.8333 30C25.6938 29.5764 25.555 29.1525 25.4167 28.7284C25.3769 28.608 25.3372 28.4875 25.2962 28.3634C25 27.4529 25 27.4529 25 27.069C25.2865 26.9473 25.2865 26.9473 25.5788 26.8231C25.8338 26.7147 26.0888 26.6063 26.3438 26.4978C26.4691 26.4446 26.5945 26.3914 26.7236 26.3365C28.0714 25.7766 28.0714 25.7766 29.3854 25.1401C29.6667 25 29.6667 25 30 25Z" fill="#4041AC"/>
<path d="M18.6 19C19.6062 19.4102 19.6062 19.4102 20 19.9375C19.8759 21.2901 18.101 22.6755 17.025 23.5312C16.3807 24 16.3807 24 15.975 24C15.9172 23.7937 15.8595 23.5875 15.8 23.375C15.9732 23.3234 16.1465 23.2719 16.325 23.2188C16.325 23.1156 16.325 23.0125 16.325 22.9062C16.4405 22.9062 16.556 22.9062 16.675 22.9062C16.675 22.7516 16.675 22.5969 16.675 22.4375C16.7327 22.3859 16.7905 22.3344 16.85 22.2812C16.6984 22.4134 16.5468 22.5455 16.3906 22.6816C16.1322 22.9069 16.1322 22.9069 15.8 23.0625C14.8964 23.0428 14.456 22.7547 13.8094 22.2129C13.6564 22.0874 13.5035 21.9619 13.3459 21.8326C13 21.5 13 21.5 13 21.1875C13.1227 21.2232 13.2454 21.2588 13.3719 21.2955C15.0494 21.7493 16.1119 21.6228 17.725 21.0312C17.725 20.9281 17.725 20.825 17.725 20.7188C17.494 20.6156 17.263 20.5125 17.025 20.4062C17.661 20.0428 18.2099 20.0683 18.95 20.0938C18.95 19.9906 18.95 19.8875 18.95 19.7812C18.8345 19.7812 18.719 19.7812 18.6 19.7812C18.6 19.5234 18.6 19.2656 18.6 19Z" fill="#262629"/>
<path d="M24.3043 28.151C24.7927 29.0215 24.9147 29.8176 25 30.8085C24.2887 31.0122 23.6032 31.0053 22.8696 30.9967C22.74 30.9959 22.6104 30.9951 22.4769 30.9943C22.1585 30.9922 21.8401 30.989 21.5217 30.9856C21.434 30.6722 21.3472 30.3584 21.2609 30.0445C21.2124 29.8697 21.164 29.695 21.1141 29.515C21 29.0368 21 29.0368 21 28.5053C21.3872 28.4108 21.775 28.3191 22.163 28.2285C22.3789 28.1771 22.5948 28.1257 22.8173 28.0728C23.3987 27.9796 23.7545 27.9477 24.3043 28.151Z" fill="#4041AE"/>
<path d="M0 25C0.159677 25.0849 0.159677 25.0849 0.322581 25.1714C0.269355 25.2846 0.216129 25.3977 0.16129 25.5143C0.427419 25.4577 0.693548 25.4011 0.967742 25.3429C0.86129 25.6257 0.754839 25.9086 0.645161 26.2C0.804839 26.2 0.964516 26.2 1.12903 26.2C1.18226 26.0869 1.23548 25.9737 1.29032 25.8571C1.39677 25.8571 1.50323 25.8571 1.6129 25.8571C1.63245 25.9542 1.65199 26.0512 1.67213 26.1511C1.69916 26.2769 1.72618 26.4026 1.75403 26.5321C1.79333 26.7201 1.79333 26.7201 1.83342 26.9118C1.908 27.2641 1.908 27.2641 2.25806 27.4C2.25806 27.6829 2.25806 27.9657 2.25806 28.2571C2.52419 28.2571 2.79032 28.2571 3.06452 28.2571C3.06452 28.3703 3.06452 28.4834 3.06452 28.6C3.17097 28.6 3.27742 28.6 3.3871 28.6C3.43034 28.7662 3.47359 28.9324 3.51815 29.1036C3.58135 29.2768 3.64456 29.4501 3.70968 29.6286C3.86935 29.6851 4.02903 29.7417 4.19355 29.8C4.14032 29.9131 4.0871 30.0263 4.03226 30.1429C4.29839 30.1994 4.56452 30.256 4.83871 30.3143C4.78548 30.4274 4.73226 30.5406 4.67742 30.6571C4.78387 30.7703 4.89032 30.8834 5 31C3.33295 30.673 1.91832 29.1286 0.927419 27.7536C0 26.0286 0 26.0286 0 25ZM0.645161 26.5429C0.806452 26.8857 0.806452 26.8857 0.806452 26.8857L0.645161 26.5429Z" fill="#36363A"/>
<path d="M24.32 3C25.5758 3 26.5565 3.59897 27.485 4.5086C27.71 4.77821 27.71 4.77821 28 5.28314C27.97 5.70025 27.97 5.70025 27.84 5.98564C27.208 6.03698 26.929 5.96639 26.45 5.51365C25.8356 4.96667 25.2052 4.61982 24.4806 4.2774C24.16 4.05376 24.16 4.05376 24.0144 3.69839C24.0096 3.58383 24.0049 3.46928 24 3.35125C24.1056 3.23534 24.2112 3.11943 24.32 3Z" fill="#EAEBEE"/>
<path d="M10.0897 14C10.2276 14 10.3655 14 10.5076 14C11.058 14.6027 11.0616 15.1612 10.9256 15.8411C10.665 16.3034 10.3102 16.6542 9.68481 16.9589C9.13664 17.0426 8.74734 16.9873 8.20897 16.8932C8.14001 16.7196 8.07105 16.546 8 16.3671C8.13792 16.3237 8.27584 16.2803 8.41794 16.2356C8.41363 16.1109 8.40932 15.9861 8.40488 15.8576C8.41794 15.4466 8.41794 15.4466 8.6269 15.1836C8.87904 15.1388 8.87904 15.1388 9.13626 15.0932C9.75712 14.9414 9.75712 14.9414 9.94602 14.4438C9.99343 14.2974 10.0408 14.1509 10.0897 14Z" fill="#242429"/>
<path d="M31.8759 26C32.054 26.5294 32.054 26.5294 31.7869 27.1581C31.6428 27.4215 31.494 27.6824 31.3417 27.9412C31.2591 28.0827 31.1765 28.2242 31.0913 28.3699C30.1064 29.9059 28.6651 30.9517 27.0683 31.8235C26.4785 31.9449 26.4785 31.9449 26 32C26.0588 31.8253 26.1175 31.6506 26.1781 31.4706C26.4131 31.5288 26.6481 31.5871 26.8903 31.6471C26.949 31.4724 27.0078 31.2976 27.0683 31.1176C27.3119 30.5487 27.4133 30.4192 27.9586 30.0588C28.0762 30.1753 28.1937 30.2918 28.3148 30.4118C28.5241 30.1934 28.5241 30.1934 28.7376 29.9706C29.205 29.5294 29.205 29.5294 29.5612 29.5294C29.5832 29.4166 29.6052 29.3038 29.6279 29.1875C29.683 29.0073 29.683 29.0073 29.7392 28.8235C29.8567 28.7653 29.9742 28.7071 30.0953 28.6471C30.0953 28.4141 30.0953 28.1812 30.0953 27.9412C30.2109 27.7044 30.3299 27.4692 30.4514 27.2353C30.5185 26.9428 30.5797 26.6488 30.6295 26.3529C31.0408 26.3529 31.4521 26.3529 31.8759 26.3529C31.8759 26.2365 31.8759 26.12 31.8759 26Z" fill="#545553"/>
<path d="M13 21C13.1503 21.038 13.3005 21.0761 13.4554 21.1152C15.4991 21.5968 16.9548 21.3793 19 21C18.2194 21.7471 17.4634 22.4634 16.4286 23C15.3215 22.9705 14.785 22.6733 13.9911 22.0938C13.8038 21.9599 13.6165 21.8261 13.4235 21.6882C13 21.3333 13 21.3333 13 21Z" fill="#EFB93F"/>
<path d="M21.4444 28.0013C21.5376 28.4144 21.6301 28.8277 21.7222 29.2411C21.7738 29.4713 21.8253 29.7014 21.8785 29.9385C22 30.5387 22 30.5387 22 31C17.05 31 12.1 31 7 31C7 30.9239 7 30.8478 7 30.7693C11.8278 30.7693 16.6556 30.7693 21.6296 30.7693C21.4463 30.0842 21.263 29.3991 21.0741 28.6933C19.0574 28.6172 17.0407 28.541 14.963 28.4626C14.963 28.3865 14.963 28.3104 14.963 28.2319C15.8001 28.193 16.6373 28.1547 17.4745 28.1166C17.711 28.1056 17.9474 28.0946 18.191 28.0833C18.5357 28.0677 18.5357 28.0677 18.8873 28.0517C19.0977 28.0421 19.3082 28.0324 19.525 28.0224C20.1651 28.0007 20.8041 27.9977 21.4444 28.0013Z" fill="#434393"/>
<path d="M15.7714 18.0978C16.6234 18.5955 17.4684 19.1892 18 19.9887C17.9434 20.1447 17.8869 20.3007 17.8286 20.4614C16.0133 21.1587 14.6834 21.1436 12.8571 20.619C12.8571 20.567 12.8571 20.515 12.8571 20.4614C14.1857 20.4417 14.1857 20.4417 14.5714 20.619C14.8435 20.6091 15.1151 20.5878 15.3857 20.5599C15.5382 20.5443 15.6907 20.5286 15.8478 20.5125C16.3393 20.4552 16.827 20.3864 17.3143 20.3039C17.0949 19.6822 16.8854 19.394 16.2857 19.0433C15.7714 18.7281 15.7714 18.7281 15.6 18.413C15.037 18.2632 14.7948 18.2395 14.2286 18.413C14.2286 18.517 14.2286 18.621 14.2286 18.7281C14.0942 18.7996 13.9599 18.8711 13.8214 18.9448C13.3502 19.2129 13.2207 19.3655 13.0286 19.8311C12.8589 19.8311 12.6891 19.8311 12.5143 19.8311C12.5709 20.0391 12.6274 20.2471 12.6857 20.4614C12.4594 20.4094 12.2331 20.3574 12 20.3039C12.6403 18.9883 14.152 17.6185 15.7714 18.0978Z" fill="#D2AC57"/>
<path d="M17 17C17.8406 17.415 18.4367 17.8543 19 18.4737C18.8586 18.4737 18.7171 18.4737 18.5714 18.4737C18.5243 18.4389 18.4771 18.4042 18.4286 18.3684C18.3814 18.5074 18.3343 18.6463 18.2857 18.7895C18.38 18.7895 18.4743 18.7895 18.5714 18.7895C18.5714 18.8589 18.5714 18.9284 18.5714 19C18.3036 18.9737 18.3036 18.9737 18 18.8947C17.8994 18.7564 17.8052 18.6156 17.7143 18.4737C17.3291 18.1574 16.9253 17.9011 16.4554 17.6579C16.3051 17.5797 16.1548 17.5016 16 17.4211C16 17.3863 16 17.3516 16 17.3158C16.2357 17.3158 16.4714 17.3158 16.7143 17.3158C16.7143 17.2463 16.7143 17.1768 16.7143 17.1053C16.8086 17.0705 16.9029 17.0358 17 17Z" fill="#2A2B2D"/>
<path d="M30 25C29.6493 26.4828 29.0099 28.1695 27.8333 29C27.8333 28.8114 27.8333 28.6229 27.8333 28.4286C27.9433 28.3657 28.0533 28.3029 28.1667 28.2381C28.3495 27.8911 28.5218 27.5367 28.6875 27.1786C28.7773 26.9858 28.8671 26.7931 28.9596 26.5945C29.028 26.4455 29.0963 26.2964 29.1667 26.1429C28.8367 26.2057 28.5067 26.2686 28.1667 26.3333C28.1667 26.459 28.1667 26.5848 28.1667 26.7143C27.9466 26.7629 27.9466 26.7629 27.722 26.8125C27.5284 26.8587 27.3349 26.9048 27.1354 26.9524C26.8483 27.0187 26.8483 27.0187 26.5553 27.0863C25.9634 27.2988 25.6218 27.5736 25.1667 28.0476C25.1117 27.7962 25.0567 27.5448 25 27.2857C25.2865 27.1513 25.2865 27.1513 25.5788 27.0141C25.8338 26.8944 26.0888 26.7746 26.3438 26.6548C26.4691 26.596 26.5945 26.5372 26.7236 26.4766C28.0714 25.858 28.0714 25.858 29.3854 25.1548C29.6667 25 29.6667 25 30 25Z" fill="#42438F"/>
<path d="M22.1827 28.0012C22.3692 28.0037 22.3692 28.0037 22.5595 28.0062C22.7014 28.0093 22.7014 28.0093 22.8462 28.0125C22.8462 28.0724 22.8462 28.1322 22.8462 28.1938C22.3385 28.2536 21.8308 28.3134 21.3077 28.375C21.3838 28.6255 21.46 28.876 21.5385 29.134C21.7423 29.8044 21.7692 30.161 21.7692 30.9125C22.8354 30.9125 23.9015 30.9125 25 30.9125C24.9492 31.0321 24.8985 31.1518 24.8462 31.275C24.2877 31.275 23.7292 31.275 23.1538 31.275C23.1031 31.5143 23.0523 31.7535 23 32C22.8985 31.8804 22.7969 31.7608 22.6923 31.6375C22.335 31.5649 21.9758 31.5034 21.6154 31.4563C21.3319 30.3827 21.1598 29.3015 21 28.1938C21.4434 28.0197 21.7228 27.9934 22.1827 28.0012Z" fill="#212240"/>
<path d="M2 26C2.06445 26.1148 2.12891 26.2296 2.19531 26.3478C2.54532 26.9405 2.93176 27.484 3.31911 28.0356C3.53846 28.3959 3.53846 28.3959 3.53846 28.7952C3.61779 28.8446 3.69712 28.894 3.77885 28.9449C4.08522 29.1488 4.38509 29.3691 4.68269 29.5938C5.10975 29.9139 5.53542 30.1732 6 30.3924C6 30.4583 6 30.5242 6 30.5921C5.36621 30.8501 4.82026 31.0438 4.15385 30.9914C4.20462 30.7937 4.25538 30.5961 4.30769 30.3924C4.20615 30.273 4.10462 30.1536 4 30.0306C3.69231 29.5938 3.69231 29.5938 3.69231 28.9948C3.59077 28.9948 3.48923 28.9948 3.38462 28.9948C3.38462 28.8631 3.38462 28.7313 3.38462 28.5955C3.13077 28.5955 2.87692 28.5955 2.61538 28.5955C2.56462 28.2661 2.51385 27.9367 2.46154 27.5972C2.36 27.5972 2.25846 27.5972 2.15385 27.5972C2.10308 27.0702 2.05231 26.5431 2 26Z" fill="#1C1E3B"/>
<path d="M24.3043 28.151C24.7927 29.0215 24.9147 29.8176 25 30.8085C24.2887 31.0122 23.6032 31.0053 22.8696 30.9967C22.74 30.9959 22.6104 30.9951 22.4769 30.9943C22.1585 30.9922 21.8401 30.989 21.5217 30.9856C21.5791 30.7518 21.6365 30.5179 21.6957 30.277C21.6957 30.4524 21.6957 30.6278 21.6957 30.8085C21.7862 30.7795 21.8768 30.7505 21.9701 30.7206C22.5088 30.6064 23.0154 30.6146 23.5652 30.6202C23.8706 30.6226 23.8706 30.6226 24.1821 30.6251C24.3372 30.6271 24.4923 30.6292 24.6522 30.6313C24.6165 30.5244 24.5809 30.4176 24.5442 30.3074C24.4973 30.1658 24.4504 30.0242 24.4022 29.8784C24.3558 29.7386 24.3094 29.5988 24.2615 29.4548C24.1451 29.0837 24.0493 28.7061 23.9565 28.3282C23.153 28.4451 22.3496 28.562 21.5217 28.6825C21.4643 28.9748 21.407 29.2671 21.3478 29.5683C21 29.0368 21 29.0368 21 28.5053C21.3872 28.4108 21.775 28.3191 22.163 28.2285C22.3789 28.1771 22.5948 28.1257 22.8173 28.0728C23.3987 27.9796 23.7545 27.9477 24.3043 28.151Z" fill="#454494"/>
<path d="M29.844 27C30.1506 27.957 29.9659 28.7315 29.6305 29.6667C29.0966 30.2083 29.0966 30.2083 28.5627 30.5556C28.4217 30.7022 28.2808 30.8489 28.1356 31C27.9241 30.8533 27.7127 30.7067 27.4949 30.5556C27.2835 30.7022 27.0721 30.8489 26.8542 31C26.5723 30.8533 26.2904 30.7067 26 30.5556C26.159 30.4584 26.159 30.4584 26.3212 30.3594C27.7348 29.4717 29.0863 28.5769 29.844 27Z" fill="#1D1F2E"/>
<path d="M1.32558 25C1.48674 25.0591 1.64791 25.1181 1.81395 25.179C1.81395 25.2971 1.81395 25.4153 1.81395 25.537C1.9684 25.5591 2.12285 25.5813 2.28198 25.6041C2.7907 25.716 2.7907 25.716 3.11628 26.0739C3.41453 26.2003 3.71721 26.3142 4.0218 26.4207C4.19765 26.483 4.37351 26.5453 4.55469 26.6095C4.72466 26.669 4.89464 26.7286 5.06977 26.7899C5.32429 26.8826 5.57867 26.9758 5.83285 27.0696C5.94743 27.1116 6.062 27.1536 6.18005 27.1968C7.09003 27.5303 7.09003 27.5303 8 27.8638C7.34441 28.1536 6.78233 27.923 6.13808 27.7072C6.01985 27.6685 5.90161 27.6298 5.77979 27.59C4.19193 27.0458 2.67725 26.287 1.16279 25.537C1.27023 25.8914 1.37767 26.2458 1.48837 26.6109C1.32721 26.5518 1.16605 26.4928 1 26.4319C1 26.0185 1 25.605 1 25.179C1.10744 25.1199 1.21488 25.0609 1.32558 25Z" fill="#212346"/>
<path d="M24.2464 14.0299C24.7555 14.1654 24.7555 14.1654 24.9699 14.3624C25.01 14.9411 25.01 14.9411 24.9699 15.5444C24.5411 15.9384 24.5411 15.9384 24.0053 16C23.74 15.9695 23.74 15.9695 23.4694 15.9384C23.0109 15.3064 22.9383 15.0958 23.0407 14.3624C23.6837 13.9684 23.6837 13.9684 24.2464 14.0299Z" fill="#E0E0E3"/>
<path d="M28.8986 7C29.194 7.00559 29.194 7.00559 29.4953 7.0113C30.0077 7.62634 30.0288 8.10558 29.9849 8.81921C29.581 8.87887 29.1771 8.93853 28.7609 9C28.1759 8.36983 27.9109 7.96131 28.0266 7.19209C28.2714 7.0113 28.2714 7.0113 28.8986 7Z" fill="#E2E3E6"/>
<path d="M3.26667 29C3.39867 29.044 3.53067 29.088 3.66667 29.1333C3.75556 29.4 3.84444 29.6667 3.93333 29.9333C4.06533 29.9773 4.19733 30.0213 4.33333 30.0667C4.28933 30.1547 4.24533 30.2427 4.2 30.3333C4.42 30.3773 4.64 30.4213 4.86667 30.4667C4.82267 30.5547 4.77867 30.6427 4.73333 30.7333C4.82133 30.8213 4.90933 30.9093 5 31C4.48935 30.9137 4.12955 30.6729 3.7 30.3917C3.56869 30.3062 3.43738 30.2208 3.30208 30.1328C3.2024 30.067 3.10271 30.0012 3 29.9333C3.11667 29.3 3.11667 29.3 3.26667 29Z" fill="#49494A"/>
<path d="M8.86432 14C9.52094 14.0208 9.52094 14.0208 9.94975 14.2423C10.0168 14.5193 10.0168 14.5193 9.94975 14.7962C9.30653 15.0178 9.30653 15.0178 8.74372 14.9832C8.23451 14.907 8.23451 14.907 8.0201 14.7962C7.9933 14.4639 7.9933 14.4639 8.0201 14.1316C8.23451 14.0208 8.23451 14.0208 8.86432 14Z" fill="#E6E6E9"/>
<path d="M12 21.029C12.5491 20.9903 12.5491 20.9903 13.2857 21.029C14.0734 21.2743 14.6857 21.5233 15 21.9117C14.3036 21.9834 14.3036 21.9834 13.5 22C12.9643 21.8014 12.9643 21.8014 12.6429 21.5586C12.7136 21.4712 12.7843 21.3838 12.8571 21.2938C12.5743 21.2355 12.2914 21.1773 12 21.1172C12 21.0881 12 21.059 12 21.029Z" fill="#212225"/>
<path d="M5.13333 31C5.22783 31.0144 5.32227 31.0303 5.41667 31.0469C5.46926 31.0556 5.52185 31.0643 5.57604 31.0732C5.73906 31.1269 5.85656 31.2233 6 31.375C5.868 31.4575 5.736 31.54 5.6 31.625C5.6 31.7075 5.6 31.79 5.6 31.875C5.666 31.9163 5.732 31.9575 5.8 32C5.30769 31.9385 5.30769 31.9385 5.1 31.6172C5.067 31.5373 5.034 31.4573 5 31.375C5.044 31.2512 5.088 31.1275 5.13333 31Z" fill="#2F3035"/>
<path d="M1 25C1.69625 25.1249 2.30511 25.4249 2.94408 25.7617C3.09688 25.8409 3.09688 25.8409 3.25278 25.9218C3.50216 26.0512 3.75112 26.1817 4 26.3125C4 26.3744 4 26.4362 4 26.5C3.01359 26.6541 2.30845 26.111 1.47368 25.5625C1.54859 25.7365 1.62349 25.9105 1.70066 26.0898C1.94737 26.6875 1.94737 26.6875 2.10526 27.25C2.20947 27.25 2.31368 27.25 2.42105 27.25C2.36895 27.4975 2.31684 27.745 2.26316 28C1.64226 27.1574 1 26.1536 1 25Z" fill="#44448F"/>
<path d="M18 21.1387C17.7069 21.4573 17.4109 21.7708 17.1118 22.0828C16.9882 22.2186 16.9882 22.2186 16.862 22.357C16.4185 22.8132 16.2038 23.0069 15.5785 22.9998C15.1579 22.836 15.1579 22.836 15 22.4966C15.1465 22.5071 15.2931 22.5176 15.4441 22.5284C15.9448 22.549 15.9448 22.549 16.2434 22.242C16.302 22.1579 16.3607 22.0739 16.4211 21.9874C16.3168 21.9874 16.2126 21.9874 16.1053 21.9874C16.0532 21.8193 16.0011 21.6513 15.9474 21.4782C16.2001 21.3879 16.4535 21.3 16.7072 21.2129C16.8483 21.1637 16.9893 21.1145 17.1347 21.0638C17.5263 20.9689 17.5263 20.9689 18 21.1387Z" fill="#CDAB53"/>
<path d="M20.5676 28.0007C20.7103 28.5872 20.853 29.1736 21 29.7779C20.8573 29.8512 20.7146 29.9245 20.5676 30C20.4249 29.5602 20.2822 29.1203 20.1351 28.6671C17.7805 28.5938 15.4259 28.5205 13 28.445C13 28.3717 13 28.2984 13 28.2228C13.9795 28.1851 14.9568 28.1473 15.9341 28.1118C16.2086 28.1007 16.4854 28.0896 16.7708 28.0784C17.173 28.0629 17.173 28.0629 17.5838 28.0473C17.8281 28.0385 18.0746 28.0296 18.3276 28.0207C19.0735 28.0007 19.8195 27.9985 20.5676 28.0007Z" fill="#434393"/>
</svg>
